<svg xmlns="http://www.w3.org/2000/svg" style="display:none">
<symbol id="computers" viewBox="0 0 24 24"><path stroke-linecap="round" stroke-linejoin="round" d="M9 17.25v1.007a3 3 0 0 1-.879 2.122L7.5 21h9l-.621-.621A3 3 0 0 1 15 18.257V17.25m6-12V15a2.25 2.25 0 0 1-2.25 2.25H5.25A2.25 2.25 0 0 1 3 15V5.25m18 0A2.25 2.25 0 0 0 18.75 3H5.25A2.25 2.25 0 0 0 3 5.25m18 0V12a2.25 2.25 0 0 1-2.25 2.25H5.25A2.25 2.25 0 0 1 3 12V5.25" />
</symbol>
<symbol id="finance_graph" viewBox="0 0 24 24"><path stroke-linecap="round" stroke-linejoin="round" d="M7.5 14.25v2.25m3-4.5v4.5m3-6.75v6.75m3-9v9M6 20.25h12A2.25 2.25 0 0 0 20.25 18V6A2.25 2.25 0 0 0 18 3.75H6A2.25 2.25 0 0 0 3.75 6v12A2.25 2.25 0 0 0 6 20.25Z" />
</symbol>
<symbol id="finance_planning" viewBox="0 0 24 24"><path stroke-linecap="round" stroke-linejoin="round" d="M3.75 3v11.25A2.25 2.25 0 0 0 6 16.5h2.25M3.75 3h-1.5m1.5 0h16.5m0 0h1.5m-1.5 0v11.25A2.25 2.25 0 0 1 18 16.5h-2.25m-7.5 0h7.5m-7.5 0-1 3m8.5-3 1 3m0 0 .5 1.5m-.5-1.5h-9.5m0 0-.5 1.5m.75-9 3-3 2.148 2.148A12.061 12.061 0 0 1 16.5 7.605" />
</symbol>
<symbol id="networking" viewBox="0 0 24 24"><path stroke-linecap="round" stroke-linejoin="round" d="M8.288 15.038a5.25 5.25 0 0 1 7.424 0M5.106 11.856c3.807-3.808 9.98-3.808 13.788 0M1.924 8.674c5.565-5.565 14.587-5.565 20.152 0M12.53 18.22l-.53.53-.53-.53a.75.75 0 0 1 1.06 0Z" />
</symbol>
<symbol id="security" viewBox="0 0 24 24"><path stroke-linecap="round" stroke-linejoin="round" d="M9 12.75 11.25 15 15 9.75m-3-7.036A11.959 11.959 0 0 1 3.598 6 11.99 11.99 0 0 0 3 9.749c0 5.592 3.824 10.29 9 11.623 5.176-1.332 9-6.03 9-11.622 0-1.31-.21-2.571-.598-3.751h-.152c-3.196 0-6.1-1.248-8.25-3.285Z" />
</symbol>
<symbol id="servers" viewBox="0 0 24 24"><path stroke-linecap="round" stroke-linejoin="round" d="M5.25 14.25h13.5m-13.5 0a3 3 0 0 1-3-3m3 3a3 3 0 1 0 0 6h13.5a3 3 0 1 0 0-6m-16.5-3a3 3 0 0 1 3-3h13.5a3 3 0 0 1 3 3m-19.5 0a4.5 4.5 0 0 1 .9-2.7L5.737 5.1a3.375 3.375 0 0 1 2.7-1.35h7.126c1.062 0 2.062.5 2.7 1.35l2.587 3.45a4.5 4.5 0 0 1 .9 2.7m0 0a3 3 0 0 1-3 3m0 3h.008v.008h-.008v-.008Zm0-6h.008v.008h-.008v-.008Zm-3 6h.008v.008h-.008v-.008Zm0-6h.008v.008h-.008v-.008Z" />
</symbol>
<symbol id="backup" viewBox="0 0 24 24"><path stroke-linecap="round" stroke-linejoin="round" d="M16.023 9.348h4.992v-.001M2.985 19.644v-4.992m0 0h4.992m-4.993 0 3.181 3.183a8.25 8.25 0 0 0 13.803-3.7M4.031 9.865a8.25 8.25 0 0 1 13.803-3.7l3.181 3.182m0-4.991v4.99" />
</symbol>
<symbol id="mail" viewBox="0 0 24 24"><path stroke-linecap="round" stroke-linejoin="round" d="M21.75 6.75v10.5a2.25 2.25 0 0 1-2.25 2.25h-15a2.25 2.25 0 0 1-2.25-2.25V6.75m19.5 0A2.25 2.25 0 0 0 19.5 4.5h-15a2.25 2.25 0 0 0-2.25 2.25m19.5 0v.243a2.25 2.25 0 0 1-1.07 1.916l-7.5 4.615a2.25 2.25 0 0 1-2.36 0L3.32 8.91a2.25 2.25 0 0 1-1.07-1.916V6.75" />
</symbol>
<symbol id="download" viewBox="0 0 24 24"><path stroke-linecap="round" stroke-linejoin="round" d="M3 16.5v2.25A2.25 2.25 0 0 0 5.25 21h13.5A2.25 2.25 0 0 0 21 18.75V16.5M16.5 12 12 16.5m0 0L7.5 12m4.5 4.5V3" />
</symbol>
<symbol id="refresh" viewBox="0 0 24 24"><path stroke-linecap="round" stroke-linejoin="round" d="M19.5 12c0-1.232-.046-2.453-.138-3.662a4.006 4.006 0 0 0-3.7-3.7 48.678 48.678 0 0 0-7.324 0 4.006 4.006 0 0 0-3.7 3.7c-.017.22-.032.441-.046.662M19.5 12l3-3m-3 3-3-3m-12 3c0 1.232.046 2.453.138 3.662a4.006 4.006 0 0 0 3.7 3.7 48.656 48.656 0 0 0 7.324 0 4.006 4.006 0 0 0 3.7-3.7c.017-.22.032-.441.046-.662M4.5 12l3 3m-3-3-3 3" />
</symbol>
<symbol id="userplus" viewBox="0 0 24 24"><path stroke-linecap="round" stroke-linejoin="round" d="M18 7.5v3m0 0v3m0-3h3m-3 0h-3m-2.25-4.125a3.375 3.375 0 1 1-6.75 0 3.375 3.375 0 0 1 6.75 0ZM3 19.235v-.11a6.375 6.375 0 0 1 12.75 0v.109A12.318 12.318 0 0 1 9.374 21c-2.331 0-4.512-.645-6.374-1.766Z" />
</symbol>
<symbol id="pin" viewBox="0 0 24 24"><path stroke-linecap="round" stroke-linejoin="round" d="M15 10.5a3 3 0 1 1-6 0 3 3 0 0 1 6 0Z" />
  <path stroke-linecap="round" stroke-linejoin="round" d="M19.5 10.5c0 7.142-7.5 11.25-7.5 11.25S4.5 17.642 4.5 10.5a7.5 7.5 0 1 1 15 0Z" />
</symbol>
<symbol id="monitor" viewBox="0 0 24 24"><path stroke-linecap="round" stroke-linejoin="round" d="M9 17.25v1.007a3 3 0 0 1-.879 2.122L7.5 21h9l-.621-.621A3 3 0 0 1 15 18.257V17.25m6-12V15a2.25 2.25 0 0 1-2.25 2.25H5.25A2.25 2.25 0 0 1 3 15V5.25m18 0A2.25 2.25 0 0 0 18.75 3H5.25A2.25 2.25 0 0 0 3 5.25m18 0V12a2.25 2.25 0 0 1-2.25 2.25H5.25A2.25 2.25 0 0 1 3 12V5.25" />
</symbol>
<symbol id="shieldcheck" viewBox="0 0 24 24"><path stroke-linecap="round" stroke-linejoin="round" d="M9 12.75 11.25 15 15 9.75m-3-7.036A11.959 11.959 0 0 1 3.598 6 11.99 11.99 0 0 0 3 9.749c0 5.592 3.824 10.29 9 11.623 5.176-1.332 9-6.03 9-11.622 0-1.31-.21-2.571-.598-3.751h-.152c-3.196 0-6.1-1.248-8.25-3.285Z" />
</symbol>
<symbol id="activity" viewBox="0 0 24 24"><path stroke-linecap="round" stroke-linejoin="round" d="m3.75 13.5 10.5-11.25L12 10.5h8.25L9.75 21.75 12 13.5H3.75Z" />
</symbol>
<symbol id="key" viewBox="0 0 24 24"><path stroke-linecap="round" stroke-linejoin="round" d="M15.75 5.25a3 3 0 0 1 3 3m3 0a6 6 0 0 1-7.029 5.912c-.563-.097-1.159.026-1.563.43L10.5 17.25H8.25v2.25H6v2.25H2.25v-2.818c0-.597.237-1.17.659-1.591l6.499-6.499c.404-.404.527-1 .43-1.563A6 6 0 1 1 21.75 8.25Z" />
</symbol>
<symbol id="handshake" viewBox="0 0 24 24"><path stroke-linecap="round" stroke-linejoin="round" d="M7.5 21 3 16.5m0 0L7.5 12M3 16.5h13.5m0-13.5L21 7.5m0 0L16.5 12M21 7.5H7.5" />
</symbol>
<symbol id="chart" viewBox="0 0 24 24"><path stroke-linecap="round" stroke-linejoin="round" d="M3 13.125C3 12.504 3.504 12 4.125 12h2.25c.621 0 1.125.504 1.125 1.125v6.75C7.5 20.496 6.996 21 6.375 21h-2.25A1.125 1.125 0 0 1 3 19.875v-6.75ZM9.75 8.625c0-.621.504-1.125 1.125-1.125h2.25c.621 0 1.125.504 1.125 1.125v11.25c0 .621-.504 1.125-1.125 1.125h-2.25a1.125 1.125 0 0 1-1.125-1.125V8.625ZM16.5 4.125c0-.621.504-1.125 1.125-1.125h2.25C20.496 3 21 3.504 21 4.125v15.75c0 .621-.504 1.125-1.125 1.125h-2.25a1.125 1.125 0 0 1-1.125-1.125V4.125Z" />
</symbol>
<symbol id="calculator" viewBox="0 0 24 24"><path stroke-linecap="round" stroke-linejoin="round" d="M15.75 15.75V18m-7.5-6.75h.008v.008H8.25v-.008Zm0 2.25h.008v.008H8.25V13.5Zm0 2.25h.008v.008H8.25v-.008Zm0 2.25h.008v.008H8.25V18Zm2.498-6.75h.007v.008h-.007v-.008Zm0 2.25h.007v.008h-.007V13.5Zm0 2.25h.007v.008h-.007v-.008Zm0 2.25h.007v.008h-.007V18Zm2.504-6.75h.008v.008h-.008v-.008Zm0 2.25h.008v.008h-.008V13.5Zm0 2.25h.008v.008h-.008v-.008Zm0 2.25h.008v.008h-.008V18Zm2.498-6.75h.008v.008h-.008v-.008Zm0 2.25h.008v.008h-.008V13.5ZM8.25 6h7.5v2.25h-7.5V6ZM12 2.25c-1.892 0-3.758.11-5.593.322C5.307 2.7 4.5 3.65 4.5 4.757V19.5a2.25 2.25 0 0 0 2.25 2.25h10.5a2.25 2.25 0 0 0 2.25-2.25V4.757c0-1.108-.806-2.057-1.907-2.185A48.507 48.507 0 0 0 12 2.25Z" />
</symbol>
<symbol id="tag" viewBox="0 0 24 24"><path stroke-linecap="round" stroke-linejoin="round" d="M9.568 3H5.25A2.25 2.25 0 0 0 3 5.25v4.318c0 .597.237 1.17.659 1.591l9.581 9.581c.699.699 1.78.872 2.607.33a18.095 18.095 0 0 0 5.223-5.223c.542-.827.369-1.908-.33-2.607L11.16 3.66A2.25 2.25 0 0 0 9.568 3Z" />
  <path stroke-linecap="round" stroke-linejoin="round" d="M6 6h.008v.008H6V6Z" />
</symbol>
<symbol id="flow" viewBox="0 0 24 24"><path stroke-linecap="round" stroke-linejoin="round" d="M7.5 21 3 16.5m0 0L7.5 12M3 16.5h13.5m0-13.5L21 7.5m0 0L16.5 12M21 7.5H7.5" />
</symbol>
<symbol id="filetext" viewBox="0 0 24 24"><path stroke-linecap="round" stroke-linejoin="round" d="M19.5 14.25v-2.625a3.375 3.375 0 0 0-3.375-3.375h-1.5A1.125 1.125 0 0 1 13.5 7.125v-1.5a3.375 3.375 0 0 0-3.375-3.375H8.25m0 12.75h7.5m-7.5 3H12M10.5 2.25H5.625c-.621 0-1.125.504-1.125 1.125v17.25c0 .621.504 1.125 1.125 1.125h12.75c.621 0 1.125-.504 1.125-1.125V11.25a9 9 0 0 0-9-9Z" />
</symbol>
<symbol id="grid" viewBox="0 0 24 24"><path stroke-linecap="round" stroke-linejoin="round" d="M3.75 6A2.25 2.25 0 0 1 6 3.75h2.25A2.25 2.25 0 0 1 10.5 6v2.25a2.25 2.25 0 0 1-2.25 2.25H6a2.25 2.25 0 0 1-2.25-2.25V6ZM3.75 15.75A2.25 2.25 0 0 1 6 13.5h2.25a2.25 2.25 0 0 1 2.25 2.25V18a2.25 2.25 0 0 1-2.25 2.25H6A2.25 2.25 0 0 1 3.75 18v-2.25ZM13.5 6a2.25 2.25 0 0 1 2.25-2.25H18A2.25 2.25 0 0 1 20.25 6v2.25A2.25 2.25 0 0 1 18 10.5h-2.25a2.25 2.25 0 0 1-2.25-2.25V6ZM13.5 15.75a2.25 2.25 0 0 1 2.25-2.25H18a2.25 2.25 0 0 1 2.25 2.25V18A2.25 2.25 0 0 1 18 20.25h-2.25A2.25 2.25 0 0 1 13.5 18v-2.25Z" />
</symbol>
<symbol id="table" viewBox="0 0 24 24"><path stroke-linecap="round" stroke-linejoin="round" d="M3.375 19.5h17.25m-17.25 0a1.125 1.125 0 0 1-1.125-1.125M3.375 19.5h7.5c.621 0 1.125-.504 1.125-1.125m-9.75 0V5.625m0 12.75v-1.5c0-.621.504-1.125 1.125-1.125m18.375 2.625V5.625m0 12.75c0 .621-.504 1.125-1.125 1.125m1.125-1.125v-1.5c0-.621-.504-1.125-1.125-1.125m0 3.75h-7.5A1.125 1.125 0 0 1 12 18.375m9.75-12.75c0-.621-.504-1.125-1.125-1.125H3.375c-.621 0-1.125.504-1.125 1.125m19.5 0v1.5c0 .621-.504 1.125-1.125 1.125M2.25 5.625v1.5c0 .621.504 1.125 1.125 1.125m0 0h17.25m-17.25 0h7.5c.621 0 1.125.504 1.125 1.125M3.375 8.25c-.621 0-1.125.504-1.125 1.125v1.5c0 .621.504 1.125 1.125 1.125m17.25-3.75h-7.5c-.621 0-1.125.504-1.125 1.125m8.625-1.125c.621 0 1.125.504 1.125 1.125v1.5c0 .621-.504 1.125-1.125 1.125m-17.25 0h7.5m-7.5 0c-.621 0-1.125.504-1.125 1.125v1.5c0 .621.504 1.125 1.125 1.125M12 10.875v-1.5m0 1.5c0 .621-.504 1.125-1.125 1.125M12 10.875c0 .621.504 1.125 1.125 1.125m-2.25 0c.621 0 1.125.504 1.125 1.125M13.125 12h7.5m-7.5 0c-.621 0-1.125.504-1.125 1.125M20.625 12c.621 0 1.125.504 1.125 1.125v1.5c0 .621-.504 1.125-1.125 1.125m-17.25 0h7.5M12 14.625v-1.5m0 1.5c0 .621-.504 1.125-1.125 1.125M12 14.625c0 .621.504 1.125 1.125 1.125m-2.25 0c.621 0 1.125.504 1.125 1.125m0 1.5v-1.5m0 0c0-.621.504-1.125 1.125-1.125m0 0h7.5" />
</symbol>
<symbol id="checksquare" viewBox="0 0 24 24"><path stroke-linecap="round" stroke-linejoin="round" d="M9 12.75 11.25 15 15 9.75M21 12a9 9 0 1 1-18 0 9 9 0 0 1 18 0Z" />
</symbol>
<symbol id="chat" viewBox="0 0 24 24"><path stroke-linecap="round" stroke-linejoin="round" d="M20.25 8.511c.884.284 1.5 1.128 1.5 2.097v4.286c0 1.136-.847 2.1-1.98 2.193-.34.027-.68.052-1.02.072v3.091l-3-3c-1.354 0-2.694-.055-4.02-.163a2.115 2.115 0 0 1-.825-.242m9.345-8.334a2.126 2.126 0 0 0-.476-.095 48.64 48.64 0 0 0-8.048 0c-1.131.094-1.976 1.057-1.976 2.192v4.286c0 .837.46 1.58 1.155 1.951m9.345-8.334V6.637c0-1.621-1.152-3.026-2.76-3.235A48.455 48.455 0 0 0 11.25 3c-2.115 0-4.198.137-6.24.402-1.608.209-2.76 1.614-2.76 3.235v6.226c0 1.621 1.152 3.026 2.76 3.235.577.075 1.157.14 1.74.194V21l4.155-4.155" />
</symbol>
<symbol id="training" viewBox="0 0 24 24"><path stroke-linecap="round" stroke-linejoin="round" d="M4.26 10.147a60.438 60.438 0 0 0-.491 6.347A48.62 48.62 0 0 1 12 20.904a48.62 48.62 0 0 1 8.232-4.41 60.46 60.46 0 0 0-.491-6.347m-15.482 0a50.636 50.636 0 0 0-2.658-.813A59.906 59.906 0 0 1 12 3.493a59.903 59.903 0 0 1 10.399 5.84c-.896.248-1.783.52-2.658.814m-15.482 0A50.717 50.717 0 0 1 12 13.489a50.702 50.702 0 0 1 7.74-3.342M6.75 15a.75.75 0 1 0 0-1.5.75.75 0 0 0 0 1.5Zm0 0v-3.675A55.378 55.378 0 0 1 12 8.443m-7.007 11.55A5.981 5.981 0 0 0 6.75 15.75v-1.5" />
</symbol>
<symbol id="info" viewBox="0 0 24 24"><path stroke-linecap="round" stroke-linejoin="round" d="M11.25 11.25h1.5v4.5h-1.5v-4.5zm.75-3h.008v.008H12V8.25zM12 21a9 9 0 1 0 0-18 9 9 0 0 0 0 18z" /></symbol>
</svg>
