<svg xmlns="http://www.w3.org/2000/svg" style="display:none">
<symbol id="computers" viewBox="0 0 24 24"><rect x="3" y="4" width="18" height="12" rx="2"/><path d="M8 20h8"/><path d="M12 16v4"/></symbol>
<symbol id="finance_graph" viewBox="0 0 24 24"><path d="M4 20V4"/><path d="M4 20h16"/><path d="M7 16l3-3 3 2 4-7"/></symbol>
<symbol id="finance_planning" viewBox="0 0 24 24"><rect x="5" y="4" width="9" height="14" rx="2"/><path d="M7.2 7h4.6"/><path d="M7.2 10h.01M9.2 10h.01M11.2 10h.01"/><path d="M7.2 12.7h.01M9.2 12.7h.01M11.2 12.7h.01"/><path d="M7.2 15.4h4.6"/><path d="M15 9h5v7h-5z"/><path d="M16 11h3"/><path d="M16 13h2.4"/></symbol>
<symbol id="networking" viewBox="0 0 24 24">
  <g stroke="currentColor" stroke-width="1.2" stroke-linecap="round" stroke-linejoin="round">
    <!-- Top node -->
    <rect x="8.25" y="3" width="7.5" height="5.5" rx="1.2"/>

    <!-- Stem down -->
    <path d="M12 8.5V11"/>

    <!-- Main horizontal bar -->
    <path d="M3 11H21"/>

    <!-- Left drop + node -->
    <path d="M6.25 11V14.5"/>
    <rect x="3.5" y="14.5" width="5.5" height="5.5" rx="1.2"/>

    <!-- Right drop + node -->
    <path d="M17.75 11V14.5"/>
    <rect x="15" y="14.5" width="5.5" height="5.5" rx="1.2"/>
  </g>
</symbol>
<symbol id="security" viewBox="0 0 24 24">

  <path d="
    M12 2.6
    C9.2 4.4 5.8 5.1 4.8 5.4
    V11.9
    C4.8 16.6 9 19.4 12 21
    C15 19.4 19.2 16.6 19.2 11.9
    V5.4
    C18.2 5.1 14.8 4.4 12 2.6
    Z
  "/>

  <rect x="8.6" y="10.6" width="6.8" height="6.2" rx="1"/>

  <path d="
    M10 10.6
    V9.2
    C10 7.6 14 7.6 14 9.2
    V10.6
  "/>

  <circle cx="12" cy="13.4" r="0.8"/>
  <path d="M12 14.2V15.8"/>

</symbol>
<symbol id="servers" viewBox="0 0 24 24"><rect x="4" y="3" width="16" height="6" rx="2"/><rect x="4" y="9" width="16" height="6" rx="2"/><rect x="4" y="15" width="16" height="6" rx="2"/><path d="M7.5 6h.01M7.5 12h.01M7.5 18h.01"/></symbol>
<symbol id="backup" viewBox="0 0 24 24">
<path d="M20 12a8 8 0 0 0-15.5-2" fill="none" stroke="currentColor" stroke-width="1.8" stroke-linecap="round" stroke-linejoin="round" />
<path d="M4 8V4h4" fill="none" stroke="currentColor" stroke-width="1.8" stroke-linecap="round" stroke-linejoin="round" />
<path d="M4 12a8 8 0 0 0 15.5 2" fill="none" stroke="currentColor" stroke-width="1.8" stroke-linecap="round" stroke-linejoin="round" />
<path d="M20 16v4h-4" fill="none" stroke="currentColor" stroke-width="1.8" stroke-linecap="round" stroke-linejoin="round" />
</symbol>
<symbol id="mail" viewBox="0 0 24 24">
<rect x="3" y="6" width="18" height="12" rx="2" fill="none" stroke="currentColor" stroke-width="1.8" stroke-linecap="round" stroke-linejoin="round" />
<path d="M3 8l9 6 9-6" fill="none" stroke="currentColor" stroke-width="1.8" stroke-linecap="round" stroke-linejoin="round" />
</symbol>
<symbol id="download" viewBox="0 0 24 24">
<path d="M12 3v10" fill="none" stroke="currentColor" stroke-width="1.8" stroke-linecap="round" stroke-linejoin="round" />
<path d="M8 10l4 4 4-4" fill="none" stroke="currentColor" stroke-width="1.8" stroke-linecap="round" stroke-linejoin="round" />
<path d="M4 17v3h16v-3" fill="none" stroke="currentColor" stroke-width="1.8" stroke-linecap="round" stroke-linejoin="round" />
</symbol>
<symbol id="refresh" viewBox="0 0 24 24">
<path d="M21 12a9 9 0 0 1-15 6" fill="none" stroke="currentColor" stroke-width="1.8" stroke-linecap="round" stroke-linejoin="round" />
<polyline points="6 18 6 21 9 21" fill="none" stroke="currentColor" stroke-width="1.8" stroke-linecap="round" stroke-linejoin="round" />
<path d="M3 12a9 9 0 0 1 15-6" fill="none" stroke="currentColor" stroke-width="1.8" stroke-linecap="round" stroke-linejoin="round" />
<polyline points="18 6 18 3 15 3" fill="none" stroke="currentColor" stroke-width="1.8" stroke-linecap="round" stroke-linejoin="round" />
</symbol>
<symbol id="userplus" viewBox="0 0 24 24">
<path d="M16 21v-2a4 4 0 0 0-4-4H6a4 4 0 0 0-4 4v2" fill="none" stroke="currentColor" stroke-width="1.8" stroke-linecap="round" stroke-linejoin="round" />
<circle cx="9" cy="7" r="3" fill="none" stroke="currentColor" stroke-width="1.8" stroke-linecap="round" stroke-linejoin="round" />
<path d="M19 8v6" fill="none" stroke="currentColor" stroke-width="1.8" stroke-linecap="round" stroke-linejoin="round" />
<path d="M16 11h6" fill="none" stroke="currentColor" stroke-width="1.8" stroke-linecap="round" stroke-linejoin="round" />
</symbol>
<symbol id="pin" viewBox="0 0 24 24">
<path d="M12 21s7-4.5 7-11a7 7 0 0 0-14 0c0 6.5 7 11 7 11z" fill="none" stroke="currentColor" stroke-width="1.8" stroke-linecap="round" stroke-linejoin="round" />
<circle cx="12" cy="10" r="2.5" fill="none" stroke="currentColor" stroke-width="1.8" stroke-linecap="round" stroke-linejoin="round" />
</symbol>
<symbol id="monitor" viewBox="0 0 24 24">
<rect x="3" y="4" width="18" height="12" rx="2" fill="none" stroke="currentColor" stroke-width="1.8" stroke-linecap="round" stroke-linejoin="round" />
<path d="M8 20h8" fill="none" stroke="currentColor" stroke-width="1.8" stroke-linecap="round" stroke-linejoin="round" />
<path d="M12 16v4" fill="none" stroke="currentColor" stroke-width="1.8" stroke-linecap="round" stroke-linejoin="round" />
<path d="M16 8l2 2-2 2" fill="none" stroke="currentColor" stroke-width="1.8" stroke-linecap="round" stroke-linejoin="round" />
<path d="M10 12l-2-2 2-2" fill="none" stroke="currentColor" stroke-width="1.8" stroke-linecap="round" stroke-linejoin="round" />
</symbol>
<symbol id="shieldcheck" viewBox="0 0 24 24">
<path d="M12 2l7 4v6c0 5-3 9-7 10-4-1-7-5-7-10V6l7-4z" fill="none" stroke="currentColor" stroke-width="1.8" stroke-linecap="round" stroke-linejoin="round" />
<path d="M9 12l2 2 4-4" fill="none" stroke="currentColor" stroke-width="1.8" stroke-linecap="round" stroke-linejoin="round" />
</symbol>
<symbol id="activity" viewBox="0 0 24 24">
<path d="M22 12h-4l-3 7-4-14-3 7H2" fill="none" stroke="currentColor" stroke-width="1.8" stroke-linecap="round" stroke-linejoin="round" />
</symbol>
<symbol id="key" viewBox="0 0 24 24">
<circle cx="7.5" cy="15.5" r="3" fill="none" stroke="currentColor" stroke-width="1.8" stroke-linecap="round" stroke-linejoin="round" />
<path d="M10 15.5h12" fill="none" stroke="currentColor" stroke-width="1.8" stroke-linecap="round" stroke-linejoin="round" />
<path d="M19 15.5v3" fill="none" stroke="currentColor" stroke-width="1.8" stroke-linecap="round" stroke-linejoin="round" />
<path d="M16 15.5v2" fill="none" stroke="currentColor" stroke-width="1.8" stroke-linecap="round" stroke-linejoin="round" />
</symbol>
<symbol id="handshake" viewBox="0 0 24 24">
<path d="M8 12l2 2a3 3 0 0 0 4 0l6-6" fill="none" stroke="currentColor" stroke-width="1.8" stroke-linecap="round" stroke-linejoin="round" />
<path d="M2 12l6-6 4 4" fill="none" stroke="currentColor" stroke-width="1.8" stroke-linecap="round" stroke-linejoin="round" />
<path d="M16 6l6 6" fill="none" stroke="currentColor" stroke-width="1.8" stroke-linecap="round" stroke-linejoin="round" />
<path d="M7 13l-2 2" fill="none" stroke="currentColor" stroke-width="1.8" stroke-linecap="round" stroke-linejoin="round" />
</symbol>
<symbol id="chart" viewBox="0 0 24 24">
<path d="M4 19V5" fill="none" stroke="currentColor" stroke-width="1.8" stroke-linecap="round" stroke-linejoin="round" />
<path d="M4 19h16" fill="none" stroke="currentColor" stroke-width="1.8" stroke-linecap="round" stroke-linejoin="round" />
<path d="M7 15l3-3 3 2 5-6" fill="none" stroke="currentColor" stroke-width="1.8" stroke-linecap="round" stroke-linejoin="round" />
</symbol>
<symbol id="calculator" viewBox="0 0 24 24">
<rect x="6" y="3" width="12" height="18" rx="2" fill="none" stroke="currentColor" stroke-width="1.8" stroke-linecap="round" stroke-linejoin="round" />
<path d="M8 7h8" fill="none" stroke="currentColor" stroke-width="1.8" stroke-linecap="round" stroke-linejoin="round" />
<path d="M9 11h0.01" fill="none" stroke="currentColor" stroke-width="1.8" stroke-linecap="round" stroke-linejoin="round" />
<path d="M12 11h0.01" fill="none" stroke="currentColor" stroke-width="1.8" stroke-linecap="round" stroke-linejoin="round" />
<path d="M15 11h0.01" fill="none" stroke="currentColor" stroke-width="1.8" stroke-linecap="round" stroke-linejoin="round" />
<path d="M9 14h0.01" fill="none" stroke="currentColor" stroke-width="1.8" stroke-linecap="round" stroke-linejoin="round" />
<path d="M12 14h0.01" fill="none" stroke="currentColor" stroke-width="1.8" stroke-linecap="round" stroke-linejoin="round" />
<path d="M15 14h0.01" fill="none" stroke="currentColor" stroke-width="1.8" stroke-linecap="round" stroke-linejoin="round" />
<path d="M9 17h6" fill="none" stroke="currentColor" stroke-width="1.8" stroke-linecap="round" stroke-linejoin="round" />
</symbol>
<symbol id="tag" viewBox="0 0 24 24">
<path d="M20 12l-8 8-10-10V2h8L20 12z" fill="none" stroke="currentColor" stroke-width="1.8" stroke-linecap="round" stroke-linejoin="round" />
<circle cx="7" cy="7" r="1.5" fill="none" stroke="currentColor" stroke-width="1.8" stroke-linecap="round" stroke-linejoin="round" />
</symbol>
<symbol id="flow" viewBox="0 0 24 24">
<path d="M6 4h4v4H6z" fill="none" stroke="currentColor" stroke-width="1.8" stroke-linecap="round" stroke-linejoin="round" />
<path d="M14 16h4v4h-4z" fill="none" stroke="currentColor" stroke-width="1.8" stroke-linecap="round" stroke-linejoin="round" />
<path d="M16 8h2a4 4 0 0 1 0 8h-2" fill="none" stroke="currentColor" stroke-width="1.8" stroke-linecap="round" stroke-linejoin="round" />
<path d="M10 6h6" fill="none" stroke="currentColor" stroke-width="1.8" stroke-linecap="round" stroke-linejoin="round" />
<path d="M8 8v8a4 4 0 0 0 4 4h2" fill="none" stroke="currentColor" stroke-width="1.8" stroke-linecap="round" stroke-linejoin="round" />
</symbol>
<symbol id="filetext" viewBox="0 0 24 24">
<path d="M14 2H6a2 2 0 0 0-2 2v16a2 2 0 0 0 2 2h12a2 2 0 0 0 2-2V8z" fill="none" stroke="currentColor" stroke-width="1.8" stroke-linecap="round" stroke-linejoin="round" />
<path d="M14 2v6h6" fill="none" stroke="currentColor" stroke-width="1.8" stroke-linecap="round" stroke-linejoin="round" />
<path d="M8 13h8" fill="none" stroke="currentColor" stroke-width="1.8" stroke-linecap="round" stroke-linejoin="round" />
<path d="M8 17h8" fill="none" stroke="currentColor" stroke-width="1.8" stroke-linecap="round" stroke-linejoin="round" />
<path d="M8 9h2" fill="none" stroke="currentColor" stroke-width="1.8" stroke-linecap="round" stroke-linejoin="round" />
</symbol>
<symbol id="grid" viewBox="0 0 24 24">
<rect x="4" y="4" width="7" height="7" rx="1" fill="none" stroke="currentColor" stroke-width="1.8" stroke-linecap="round" stroke-linejoin="round" />
<rect x="13" y="4" width="7" height="7" rx="1" fill="none" stroke="currentColor" stroke-width="1.8" stroke-linecap="round" stroke-linejoin="round" />
<rect x="4" y="13" width="7" height="7" rx="1" fill="none" stroke="currentColor" stroke-width="1.8" stroke-linecap="round" stroke-linejoin="round" />
<rect x="13" y="13" width="7" height="7" rx="1" fill="none" stroke="currentColor" stroke-width="1.8" stroke-linecap="round" stroke-linejoin="round" />
</symbol>
<symbol id="table" viewBox="0 0 24 24">
<rect x="3" y="5" width="18" height="14" rx="2" fill="none" stroke="currentColor" stroke-width="1.8" stroke-linecap="round" stroke-linejoin="round" />
<path d="M3 10h18" fill="none" stroke="currentColor" stroke-width="1.8" stroke-linecap="round" stroke-linejoin="round" />
<path d="M8 5v14" fill="none" stroke="currentColor" stroke-width="1.8" stroke-linecap="round" stroke-linejoin="round" />
<path d="M16 5v14" fill="none" stroke="currentColor" stroke-width="1.8" stroke-linecap="round" stroke-linejoin="round" />
</symbol>
<symbol id="checksquare" viewBox="0 0 24 24">
<rect x="4" y="4" width="16" height="16" rx="2" fill="none" stroke="currentColor" stroke-width="1.8" stroke-linecap="round" stroke-linejoin="round" />
<path d="M8 12l2.5 2.5L16 9" fill="none" stroke="currentColor" stroke-width="1.8" stroke-linecap="round" stroke-linejoin="round" />
</symbol>
<symbol id="chat" viewBox="0 0 24 24">
<path d="M21 15a4 4 0 0 1-4 4H8l-5 3V7a4 4 0 0 1 4-4h10a4 4 0 0 1 4 4z" fill="none" stroke="currentColor" stroke-width="1.8" stroke-linecap="round" stroke-linejoin="round" />
<path d="M8 9h8" fill="none" stroke="currentColor" stroke-width="1.8" stroke-linecap="round" stroke-linejoin="round" />
<path d="M8 12h6" fill="none" stroke="currentColor" stroke-width="1.8" stroke-linecap="round" stroke-linejoin="round" />
</symbol>
<symbol id="training" viewBox="0 0 24 24">
<path d="M22 10L12 5 2 10l10 5 10-5z" fill="none" stroke="currentColor" stroke-width="1.8" stroke-linecap="round" stroke-linejoin="round" />
<path d="M6 12v5c0 1 3 3 6 3s6-2 6-3v-5" fill="none" stroke="currentColor" stroke-width="1.8" stroke-linecap="round" stroke-linejoin="round" />
<path d="M22 10v6" fill="none" stroke="currentColor" stroke-width="1.8" stroke-linecap="round" stroke-linejoin="round" />
</symbol>
</svg>
